 <svg
      xmlns="http://www.w3.org/2000/svg"
      width="512"
      height="512"
      fillRule="evenodd"
      clipRule="evenodd"
      imageRendering="optimizeQuality"
      shapeRendering="geometricPrecision"
      textRendering="geometricPrecision"
    >
      <path
        fill="#04add0"
        d="M238.5-.5h33c37.005 2.67 72.005 12.67 105 30a7260.806 7260.806 0 01-241 0c32.219-17.304 66.553-27.304 103-30z"
        opacity="0.994"
      ></path>
      <path
        fill="#0aa8cd"
        d="M135.5 29.5a7260.806 7260.806 0 00241 0 242.257 242.257 0 0143 30c-109.501.333-218.835 0-328-1 13.287-11.652 27.954-21.318 44-29z"
        opacity="0.997"
      ></path>
      <path
        fill="#0fa3cb"
        d="M91.5 58.5c109.165 1 218.499 1.333 328 1a144.272 144.272 0 0129 28c-128.737.331-257.403-.002-386-1a287.257 287.257 0 0129-28z"
        opacity="0.997"
      ></path>
      <path
        fill="#159ec8"
        d="M62.5 86.5c128.597.998 257.263 1.331 386 1a174.183 174.183 0 0123 31c-.789-.283-1.456-.783-2-1.5-41.665-.5-83.332-.667-125-.5-46.344-26.642-92.677-26.642-139 0h-165a160.537 160.537 0 0122-30z"
        opacity="0.993"
      ></path>
      <path
        fill="#1c98c5"
        d="M40.5 116.5h165a3357.862 3357.862 0 01-19 15.5 162.803 162.803 0 00-17 20.5 5551.099 5551.099 0 00-149-1c5.418-12.516 12.084-24.183 20-35z"
        opacity="0.996"
      ></path>
      <path
        fill="#1b99c6"
        d="M367.5 149.5c-7.47 1.331-15.304 1.998-23.5 2a311.986 311.986 0 01-24.5-1c-4.948-15.145-15.281-20.979-31-17.5-3.6 2.048-7.1 4.214-10.5 6.5-12.326-10.963-24.326-10.63-36 1a28.51 28.51 0 00-4.5 9c-17.67.167-35.336 0-53-.5.752-.671 1.086-1.504 1-2.5 32.592-35.472 72.592-47.972 120-37.5 25.208 6.757 45.875 20.257 62 40.5z"
        opacity="0.981"
      ></path>
      <path
        fill="#1c98c5"
        d="M344.5 116.5c41.668-.167 83.335 0 125 .5.544.717 1.211 1.217 2 1.5 7.539 10.407 13.539 21.74 18 34-18.095-.66-36.261-.994-54.5-1-18.179 0-36.013.667-53.5 2-10-14.667-22.333-27-37-37z"
        opacity="0.994"
      ></path>
      <path
        fill="#2293c3"
        d="M185.5 146.5c.086.996-.248 1.829-1 2.5 17.664.5 35.33.667 53 .5v4c-14.085.203-22.418 7.203-25 21-.904.709-1.237 1.709-1 3h-45c4.58-11.511 10.914-21.844 19-31z"
        opacity="0.981"
      ></path>
      <path
        fill="#2293c2"
        d="M20.5 151.5c49.836-.332 99.503.001 149 1a209.103 209.103 0 00-13 24 5293.948 5293.948 0 01-145 1 149.941 149.941 0 019-26z"
        opacity="0.995"
      ></path>
      <path
        fill="#2392c2"
        d="M489.5 152.5c5.357 10.06 9.357 20.727 12 32-35.073-.326-70.073.007-105 1a163.075 163.075 0 00-15-32c17.487-1.333 35.321-2 53.5-2 18.239.006 36.405.34 54.5 1z"
        opacity="0.995"
      ></path>
      <path
        fill="#2491c2"
        d="M273.5 184.5h-50c-4.324-9.868-1.658-17.034 8-21.5 10.53-1.147 16.864 3.52 19 14 6.577 1.591 8.744-.909 6.5-7.5-1.865-5.031-5.031-9.031-9.5-12-2.182-10.295 1.985-15.962 12.5-17 5.911.121 10.245 2.788 13 8 .5 11.995.667 23.995.5 36zM332.5 184.5h-49c.302 2.559-.032 4.893-1 7a840.27 840.27 0 01.5-41c3.984-9.227 10.818-12.06 20.5-8.5 5.059 3.612 7.226 8.446 6.5 14.5-7.045 4.428-10.711 10.761-11 19 2.667 4 5.333 4 8 0 3.577-11.704 11.077-15.204 22.5-10.5 6.496 5.801 7.496 12.301 3 19.5z"
        opacity="0.994"
      ></path>
      <path
        fill="#288dc0"
        d="M156.5 176.5a249.845 249.845 0 00-8 30H3.5c1.598-10.069 4.265-19.736 8-29 48.405.328 96.739-.005 145-1z"
        opacity="0.996"
      ></path>
      <path
        fill="#288ec0"
        d="M212.5 174.5a29.374 29.374 0 002 12c-4.312 3.09-8.146 6.757-11.5 11-1.593 3.661-2.759 7.328-3.5 11-12.958-1.981-26.291-2.648-40-2 .237-1.291-.096-2.291-1-3 1.448-9.149 4.115-17.816 8-26h45c-.237-1.291.096-2.291 1-3z"
        opacity="0.985"
      ></path>
      <path
        fill="#268fc1"
        d="M367.5 149.5c13.465 16.61 21.798 35.61 25 57h-36c-1.764-8.937-6.764-15.437-15-19.5 5.312-13.065 1.979-23.399-10-31a38.887 38.887 0 00-12-2.5v-3c8.091.652 16.258.985 24.5 1 8.196-.002 16.03-.669 23.5-2z"
        opacity="0.985"
      ></path>
      <path
        fill="#298dc0"
        d="M501.5 184.5a87.911 87.911 0 015 22h-105a160.284 160.284 0 00-5-21 2783.891 2783.891 0 01105-1z"
        opacity="0.995"
      ></path>
      <path
        fill="#2b8bbf"
        d="M223.5 184.5h50v33h-61c-4.561-4.851-5.061-10.185-1.5-16 4.541-5.346 10.375-7.513 17.5-6.5 4-2.667 4-5.333 0-8-2.153-.099-3.819-.933-5-2.5z"
        opacity="0.994"
      ></path>
      <path
        fill="#2c8abe"
        d="M332.5 184.5c-1.789 1.507-3.789 2.84-6 4-1.333 1.667-1.333 3.333 0 5a249.92 249.92 0 0116 4.5c6.895 7.955 6.562 15.622-1 23a52.76 52.76 0 01-13 2c-3.222 1.99-3.722 4.49-1.5 7.5 2.209.489 4.042 1.489 5.5 3a600.937 600.937 0 01-49 1c.284 1.915-.049 3.581-1 5v-48c.968-2.107 1.302-4.441 1-7h49z"
        opacity="0.994"
      ></path>
      <path
        fill="#2e88bd"
        d="M3.5 206.5h145a366.452 366.452 0 01-1.5 22 785.54 785.54 0 01-4.5 7 5148.887 5148.887 0 00-143-1v-4c1.226-7.894 2.56-15.894 4-24zM401.5 206.5h105c2.248 8.733 3.582 17.733 4 27-36 1.333-72 1.333-108 0a221.28 221.28 0 00-1-27z"
        opacity="0.995"
      ></path>
      <path
        fill="#2f88bd"
        d="M158.5 203.5c.904.709 1.237 1.709 1 3 13.709-.648 27.042.019 40 2 1.015 9.849 5.848 17.182 14.5 22 .405 2.275-.095 4.275-1.5 6-19.305-1.988-38.972-2.654-59-2l2.5-5a537.864 537.864 0 012.5-26z"
        opacity="0.985"
      ></path>
      <path
        fill="#3186bc"
        d="M212.5 217.5h61v28a69.302 69.302 0 01-16-1c-.628-3.455-2.628-4.622-6-3.5a40.348 40.348 0 01-8 12c-12.336 5.296-19.67 1.463-22-11.5-.205-3.295.628-6.295 2.5-9 6.508-.951 8.008-4.118 4.5-9.5l-11-1c-2.208-1.047-3.874-2.547-5-4.5z"
        opacity="0.981"
      ></path>
      <path
        fill="#3483bb"
        d="M332.5 233.5c4.496 7.199 3.496 13.699-3 19.5-6.243 3.535-12.243 3.201-18-1a44.301 44.301 0 01-6-11c-4.998-1.33-7.164.504-6.5 5.5 1.482 6.641 5.148 11.641 11 15 .024 12.267-6.142 17.434-18.5 15.5-3.437-1.105-5.937-3.272-7.5-6.5a173.208 173.208 0 01-1.5-31c.951-1.419 1.284-3.085 1-5 16.509.33 32.842-.004 49-1z"
        opacity="0.988"
      ></path>
      <path
        fill="#3186bc"
        d="M356.5 206.5h36c1.58 14.76 1.247 29.427-1 44a613.831 613.831 0 01-49-1c2.706-6.288 2.373-12.455-1-18.5 10.492-4.82 15.492-12.986 15-24.5z"
        opacity="0.992"
      ></path>
      <path
        fill="#3582ba"
        d="M153.5 234.5c20.028-.654 39.695.012 59 2-.783 17.547 7.55 26.881 25 28v3c-34.171.332-68.171-.002-102-1a458.494 458.494 0 0118-32z"
        opacity="0.988"
      ></path>
      <path
        fill="#3582ba"
        d="M-.5 234.5c47.739-.328 95.405.005 143 1a380.306 380.306 0 01-19 32H-.5v-33z"
        opacity="0.997"
      ></path>
      <path
        fill="#3781b9"
        d="M257.5 244.5a69.302 69.302 0 0016 1c.166 8.007 0 16.007-.5 24-5.405 8.314-12.572 10.148-21.5 5.5-7.318-7.777-6.485-14.611 2.5-20.5 2.035-3.061 3.201-6.395 3.5-10z"
        opacity="0.977"
      ></path>
      <path
        fill="#3582ba"
        d="M402.5 233.5c36 1.333 72 1.333 108 0-.172.992.162 1.658 1 2v31a1630.293 1630.293 0 01-114 0 158.2 158.2 0 005-33z"
        opacity="0.995"
      ></path>
      <path
        fill="#3a7eb8"
        d="M342.5 249.5a613.831 613.831 0 0049 1c-2.117 13.691-6.783 26.358-14 38-84.835.333-169.502-.001-254-1a108.477 108.477 0 0112-21c33.829.998 67.829 1.332 102 1 6.079 17.705 17.746 22.872 35 15.5a54.593 54.593 0 015.5-4.5c9.973 9.114 20.807 10.281 32.5 3.5 5.252-4.671 8.252-10.504 9-17.5 11.153.156 18.82-4.844 23-15z"
        opacity="0.988"
      ></path>
      <path
        fill="#3a7eb8"
        d="M397.5 266.5a1630.293 1630.293 0 00114 0v9a212.116 212.116 0 00-2 13c-40.347.661-80.347-.006-120-2a5949.155 5949.155 0 008-20z"
        opacity="0.994"
      ></path>
      <path
        fill="#3a7eb8"
        d="M-.5 267.5h124a108.477 108.477 0 01-12 21H.5c.302-2.559-.032-4.893-1-7v-14z"
        opacity="0.995"
      ></path>
      <path
        fill="#4079b5"
        d="M389.5 286.5c39.653 1.994 79.653 2.661 120 2a180.875 180.875 0 01-7 35 5077.105 5077.105 0 01-142 1c11.232-11.553 20.898-24.22 29-38z"
        opacity="0.994"
      ></path>
      <path
        fill="#3f7ab6"
        d="M123.5 287.5c84.498.999 169.165 1.333 254 1a95.69 95.69 0 01-17 23c-67.262-.996-134.596-1.33-202-1 .284-1.915-.049-3.581-1-5-.416-2.252-1.749-3.752-4-4.5a684.346 684.346 0 00-37-.5c-.009-1.808.491-3.475 1.5-5a49.056 49.056 0 015.5-8z"
        opacity="0.995"
      ></path>
      <path
        fill="#4377b4"
        d="M157.5 305.5c.951 1.419 1.284 3.085 1 5 67.404-.33 134.738.004 202 1a117.713 117.713 0 00-12 14 9029.364 9029.364 0 00-190-1c.237 1.291-.096 2.291-1 3v-22z"
        opacity="0.995"
      ></path>
      <path
        fill="#4178b5"
        d="M.5 288.5h111c-1.993 3.19-3.326 6.69-4 10.5.168 3.844 1.835 6.844 5 9a225.194 225.194 0 0036 1.5v15H8.5c-3.726-11.657-6.393-23.657-8-36z"
        opacity="0.982"
      ></path>
      <path
        fill="#4773b2"
        d="M502.5 323.5a191.732 191.732 0 01-11 33 5293.954 5293.954 0 00-145-1c1.719-11.764 6.386-22.097 14-31 47.405.328 94.739-.005 142-1z"
        opacity="0.996"
      ></path>
      <path
        fill="#4773b2"
        d="M8.5 324.5h140v36c-.951-1.419-1.284-3.085-1-5h-129a210.011 210.011 0 01-10-31z"
        opacity="0.993"
      ></path>
      <path
        fill="#4773b2"
        d="M348.5 325.5c-5.986 9.634-9.986 19.968-12 31a7924.192 7924.192 0 00-178-1c.295-2.235-.039-4.235-1-6v-22c.904-.709 1.237-1.709 1-3 63.502-.332 126.836.001 190 1z"
        opacity="0.996"
      ></path>
      <path
        fill="#4d6db0"
        d="M157.5 349.5c.961 1.765 1.295 3.765 1 6 59.502-.332 118.836.001 178 1v21c-.977 2.787-1.31 5.787-1 9h-113c.313-3.542-.021-6.875-1-10 .322-2.222-.345-4.056-2-5.5l-57-1c-2.167-.833-3.667-2.333-4.5-4.5a128.507 128.507 0 01-.5-16z"
        opacity="0.991"
      ></path>
      <path
        fill="#4e6daf"
        d="M18.5 355.5h129c-.284 1.915.049 3.581 1 5-.177 9.325 4.156 15.491 13 18.5 16.997.5 33.997.667 51 .5v9a7746.995 7746.995 0 00-176 1c-7.017-10.697-13.017-22.03-18-34z"
        opacity="0.989"
      ></path>
      <path
        fill="#4e6daf"
        d="M346.5 355.5c48.405-.328 96.739.005 145 1-4.983 11.97-10.983 23.303-18 34-42.32-1.995-84.987-2.661-128-2a281.607 281.607 0 011-33z"
        opacity="0.997"
      ></path>
      <path
        fill="#5369ad"
        d="M221.5 376.5c.979 3.125 1.313 6.458 1 10h113c-.31-3.213.023-6.213 1-9v29h-115v-30z"
        opacity="0.969"
      ></path>
      <path
        fill="#5468ad"
        d="M212.5 388.5c-.166 7.674 0 15.341.5 23l1.5 3h-161a168.526 168.526 0 01-17-25 7746.995 7746.995 0 01176-1z"
        opacity="0.997"
      ></path>
      <path
        fill="#5468ad"
        d="M345.5 388.5c43.013-.661 85.68.005 128 2a153.363 153.363 0 01-17 24c-37.504.332-74.837-.002-112-1a171.774 171.774 0 001-25z"
        opacity="0.995"
      ></path>
      <path
        fill="#5864ab"
        d="M344.5 413.5c37.163.998 74.496 1.332 112 1a103.042 103.042 0 01-11 13 18163.785 18163.785 0 00-381 0 103.05 103.05 0 01-11-13h161a2746.817 2746.817 0 00128 .5c.544-.717 1.211-1.217 2-1.5z"
        opacity="0.997"
      ></path>
      <path
        fill="#5b62aa"
        d="M445.5 427.5a60.87 60.87 0 01-16 16h-349c-5.667-5-11-10.333-16-16a18163.785 18163.785 0 01381 0z"
        opacity="0.998"
      ></path>
      <path
        fill="#5f5ea8"
        d="M80.5 443.5h349a108.503 108.503 0 01-19 16c-103.501-.333-206.835.001-310 1a121.778 121.778 0 01-20-17z"
        opacity="0.999"
      ></path>
      <path
        fill="#625ca7"
        d="M410.5 459.5a101.354 101.354 0 01-19 14c-45.328-1.333-90.995-2-137-2-45.835 0-91.501.333-137 1a230.542 230.542 0 01-17-12 24030.105 24030.105 0 01310-1z"
        opacity="0.997"
      ></path>
      <path
        fill="#6559a5"
        d="M117.5 472.5c45.499-.667 91.165-1 137-1 46.005 0 91.672.667 137 2a324.866 324.866 0 01-39 20 9511.14 9511.14 0 00-195-1 187.01 187.01 0 01-40-20z"
        opacity="0.994"
      ></path>
      <path
        fill="#6956a4"
        d="M157.5 492.5a9511.14 9511.14 0 01195 1c-22.704 8.842-46.038 14.842-70 18h-54c-18.917-2.42-37.583-6.586-56-12.5-5.307-1.705-10.307-3.871-15-6.5z"
        opacity="0.988"
      ></path>
    </svg>