<?xml version="1.0" standalone="no"?>
<!DOCTYPE svg PUBLIC "-//W3C//DTD SVG 20010904//EN"
 "http://www.w3.org/TR/2001/REC-SVG-20010904/DTD/svg10.dtd">
<svg version="1.0" xmlns="http://www.w3.org/2000/svg"
 width="256.000000pt" height="256.000000pt" viewBox="0 0 256.000000 256.000000"
 preserveAspectRatio="xMidYMid meet">

<g transform="translate(0.000000,256.000000) scale(0.100000,-0.100000)"
fill="#000000" stroke="none">
<path d="M1215 2549 c-45 -13 -105 -67 -126 -113 -10 -23 -19 -62 -19 -88 0
-41 -4 -50 -34 -73 -47 -36 -113 -122 -166 -215 l-45 -81 -135 -3 c-105 -2
-150 -8 -202 -25 l-67 -21 -43 22 c-52 28 -147 31 -193 6 -76 -40 -118 -108
-118 -188 0 -84 56 -174 122 -195 13 -4 22 -21 29 -58 16 -80 48 -157 102
-248 l50 -83 -34 -51 c-92 -138 -130 -258 -124 -384 3 -73 9 -95 32 -136 26
-44 29 -60 30 -142 1 -84 3 -94 31 -134 40 -56 103 -89 171 -89 29 0 64 4 78
10 36 13 102 76 116 110 12 29 14 30 84 30 l72 0 23 -47 c93 -192 246 -328
392 -348 94 -13 206 28 297 110 52 47 156 192 181 253 l13 32 103 0 c99 0 220
17 276 38 21 9 36 6 74 -14 65 -32 126 -32 194 2 72 36 104 86 109 170 6 86
-22 145 -89 187 -44 27 -49 34 -60 86 -15 76 -52 161 -105 248 l-45 73 31 45
c86 125 135 276 128 395 -6 95 -32 155 -95 218 -89 89 -225 132 -417 132
l-104 0 -41 76 c-48 89 -120 183 -167 219 -30 23 -34 32 -34 72 0 140 -139
242 -275 202z m135 -68 c110 -58 107 -221 -4 -272 -52 -23 -80 -23 -132 0 -54
25 -84 73 -84 138 0 116 118 189 220 134z m-232 -271 c73 -98 248 -97 326 2
l25 33 42 -40 c74 -72 172 -232 147 -239 -7 -2 -49 -11 -93 -21 -44 -10 -126
-33 -183 -52 l-103 -34 -106 36 c-57 19 -145 43 -194 53 -101 19 -98 12 -43
109 32 58 137 183 153 183 4 0 17 -13 29 -30z m-772 -306 c67 -32 102 -125 74
-194 -18 -44 -72 -87 -119 -95 -93 -16 -189 76 -177 169 13 104 127 165 222
120z m451 3 c-22 -58 -59 -190 -77 -277 l-21 -105 -67 -62 c-37 -34 -70 -62
-74 -63 -3 0 -38 -36 -76 -79 -66 -75 -71 -79 -86 -62 -27 29 -94 167 -112
227 -18 64 -16 68 49 78 30 5 53 19 88 54 66 67 84 137 55 220 -9 25 -11 44
-5 47 47 30 336 49 326 22z m1228 -2 c129 -34 219 -103 249 -192 20 -60 20
-164 0 -234 -16 -53 -80 -185 -109 -223 -13 -18 -17 -15 -67 40 -48 54 -122
125 -205 200 -29 25 -35 41 -53 129 -17 85 -56 227 -76 280 -5 13 10 15 98 15
61 0 128 -6 163 -15z m-988 -31 c51 -13 108 -30 125 -37 l33 -14 -111 -56
c-61 -32 -155 -86 -209 -122 -54 -36 -100 -64 -101 -62 -8 8 38 187 73 285
l16 43 41 -7 c23 -3 83 -17 133 -30z m687 -41 c27 -81 68 -245 63 -250 -2 -1
-46 25 -98 60 -52 34 -146 89 -209 121 l-115 60 35 14 c44 18 248 71 277 72
18 0 25 -12 47 -77z m-297 -107 c176 -89 370 -218 380 -254 5 -15 8 -149 8
-298 0 -223 -3 -274 -15 -289 -29 -35 -258 -178 -387 -242 l-133 -65 -133 65
c-128 64 -358 207 -387 242 -17 20 -27 346 -15 499 6 80 11 101 28 118 71 68
458 288 507 288 10 0 76 -29 147 -64z m-742 -536 c0 -132 -2 -240 -4 -240 -18
0 -231 223 -231 242 0 10 219 238 229 238 3 0 6 -108 6 -240z m1323 116 c56
-59 102 -111 102 -117 0 -16 -103 -130 -173 -192 l-62 -54 0 242 c0 217 2 242
16 235 8 -5 61 -56 117 -114z m-1500 -275 c54 -54 118 -116 144 -137 47 -39
47 -39 68 -144 11 -58 33 -147 49 -198 32 -101 35 -93 -38 -96 -32 -1 -34 1
-50 52 -30 99 -109 162 -202 162 -48 0 -116 -27 -138 -53 -7 -10 -17 -17 -21
-17 -11 0 -47 89 -54 136 -9 53 16 170 52 248 32 67 79 146 88 146 3 0 49 -44
102 -99z m1686 40 c37 -60 78 -160 91 -218 6 -31 5 -33 -22 -33 -75 -1 -160
-73 -184 -157 -12 -44 -6 -106 15 -154 9 -19 -39 -35 -149 -49 -101 -13 -189
-4 -180 19 20 48 58 188 75 276 20 97 22 101 63 134 23 19 87 80 142 137 55
56 103 103 107 103 4 1 23 -25 42 -58z m-1189 -419 c50 -28 112 -60 139 -72
28 -12 45 -24 40 -29 -21 -20 -248 -81 -300 -81 -17 0 -27 8 -35 27 -19 52
-67 218 -74 262 l-7 43 73 -49 c41 -27 115 -72 164 -101z m761 31 c-14 -54
-34 -123 -44 -153 l-19 -55 -46 2 c-49 1 -274 60 -282 73 -3 5 20 20 51 34 59
27 263 146 324 189 19 14 36 21 38 17 2 -5 -8 -53 -22 -107z m607 53 c39 -26
71 -98 62 -144 -14 -75 -62 -123 -135 -137 -26 -4 -47 0 -80 17 -59 30 -90 77
-90 137 0 125 137 196 243 127z m-1815 -146 c44 -27 72 -76 72 -128 0 -140
-161 -209 -259 -111 -97 96 -28 259 109 259 27 0 58 -8 78 -20z m808 -101 c49
-17 136 -41 193 -54 57 -13 106 -26 109 -29 9 -10 -83 -158 -134 -215 -31 -34
-78 -71 -116 -92 -56 -30 -71 -34 -138 -34 -85 1 -149 27 -221 92 -63 57 -181
234 -166 249 3 3 51 16 108 29 77 18 268 76 275 84 0 1 40 -13 90 -30z"/>
<path d="M1210 1623 c-48 -7 -145 -46 -185 -73 -64 -44 -134 -126 -165 -193
-144 -309 78 -657 420 -657 410 0 617 484 333 781 -104 109 -261 165 -403 142z
m235 -91 c266 -125 325 -470 113 -668 -238 -222 -619 -91 -680 233 -30 162 60
341 211 422 78 41 122 51 213 47 61 -3 92 -11 143 -34z"/>
<path d="M1123 1338 c-20 -25 -135 -327 -131 -345 2 -10 11 -19 21 -21 13 -3
24 11 42 52 l25 56 64 0 63 0 17 -44 c22 -58 42 -75 62 -54 13 13 7 35 -54
189 -67 170 -85 198 -109 167z m35 -135 c5 -16 13 -36 17 -45 6 -15 1 -18 -33
-18 l-41 0 17 45 c9 25 19 45 23 45 4 0 12 -12 17 -27z"/>
<path d="M1334 1335 c-10 -24 15 -45 52 -45 l34 0 0 -129 0 -130 -42 -3 c-38
-3 -43 -6 -43 -28 l0 -25 115 0 115 0 0 25 c0 22 -5 25 -42 28 l-43 3 0 130 0
129 33 0 c41 0 60 12 55 36 -3 17 -15 19 -116 22 -94 2 -113 0 -118 -13z"/>
</g>
</svg>
